# xmcd
#
# Track frame offsets:
#	150
#	15348
#	26829
#	43512
#	57624
#	69075
#	84821
#	101962
#	114762
#	129838
#	143355
#	160978
#	174928
#	190213
#
# Disc length: 2692 seconds
#
# Revision: 2
# Processed by: cddbd v1.5.1PL2 Copyright (c) Steve Scherf et al.
# Submitted via: audiograbber 1.83.01
#
DISCID=a40a820e
DTITLE=Gala Star Festival - Musik für schöne Stunden Platte 2
DYEAR=1900
DGENRE=
TTITLE0=Isadora
TTITLE1=Pour un flirt
TTITLE2=Ein Lächeln
TTITLE3=Der Condor zieht
TTITLE4=La Ronde
TTITLE5=La Bamba
TTITLE6=Jambalaya
TTITLE7=Les Chams Elysees
TTITLE8=Quando M'Innamoro
TTITLE9=Guantanamara
TTITLE10=Sommernacht in Madrid
TTITLE11=Spanish Harlem
TTITLE12=Das kartenspiel
TTITLE13=Mitternachtsblues
EXTD=
EXTT0=
EXTT1=
EXTT2=
EXTT3=
EXTT4=
EXTT5=
EXTT6=
EXTT7=
EXTT8=
EXTT9=
EXTT10=
EXTT11=
EXTT12=
EXTT13=
PLAYORDER=
